<!DOCTYPE svg PUBLIC "-//W3C//DTD SVG 1.1//EN" "http://www.w3.org/Graphics/SVG/1.1/DTD/svg11.dtd">
<!-- Uploaded to: SVG Repo, www.svgrepo.com, Transformed by: SVG Repo Mixer Tools -->
<svg fill="#ffffff" height="800px" width="800px" version="1.1" id="Capa_1" xmlns="http://www.w3.org/2000/svg" xmlns:xlink="http://www.w3.org/1999/xlink" viewBox="-23.05 -23.05 276.55 276.55" xml:space="preserve" stroke="#ffffff">
<g id="SVGRepo_bgCarrier" stroke-width="0">
<rect x="-23.05" y="-23.05" width="276.55" height="276.55" rx="0" fill="#0077B6" strokewidth="0"/>
</g>
<g id="SVGRepo_tracerCarrier" stroke-linecap="round" stroke-linejoin="round"/>
<g id="SVGRepo_iconCarrier"> <path d="M230.452,81.522v-53.25h-53.283v15h27.676L183.506,64.61c-13.38-26.507-40.85-44.738-72.513-44.738 c-44.768,0-81.189,36.423-81.189,81.193c0,9.061,1.515,17.769,4.266,25.914L0,161.049l10.606,10.606l30.074-30.075 c14.049,24.285,40.294,40.672,70.312,40.672c19.689,0,37.76-7.049,51.833-18.751l47.079,47.077l10.606-10.606l-47.079-47.077 c11.702-14.072,18.752-32.142,18.752-51.831c0-7.305-0.985-14.38-2.803-21.119l26.07-26.068v27.644H230.452z M44.803,101.065 c0-36.499,29.692-66.193,66.189-66.193c27.596,0,51.29,16.98,61.212,41.038l-36.31,36.308L92.359,68.685l-46.113,46.116 C45.306,110.368,44.803,105.775,44.803,101.065z M177.184,101.065c0,36.496-29.693,66.188-66.191,66.188 c-25.919,0-48.393-14.982-59.25-36.734l40.618-40.62l43.535,43.531l40.741-40.738C176.984,95.436,177.184,98.227,177.184,101.065z"/> </g>
</svg>